<?xml version="1.0" encoding="iso-8859-1"?>
<!-- Generator: Adobe Illustrator 19.0.0, SVG Export Plug-In . SVG Version: 6.00 Build 0)  -->
<svg height="512" width="512" version="1.1" id="Layer_1" xmlns="http://www.w3.org/2000/svg" xmlns:xlink="http://www.w3.org/1999/xlink" x="0px" y="0px"
	 viewBox="0 0 512.001 512.001" style="enable-background:new 0 0 512.001 512.001;" xml:space="preserve">
<path style="fill:#E8CAAF;" d="M396.956,505.531c-9.136-44.687-44.146-79.324-89.192-88.241v-37.061h-73.183v37.061
	c-45.046,8.915-80.056,43.553-89.191,88.241c-0.325,1.586,0.081,3.235,1.104,4.488c1.024,1.255,2.555,1.982,4.174,1.982h241.008
	c1.619,0,3.151-0.726,4.174-1.982C396.873,508.765,397.281,507.117,396.956,505.531z"/>
<path style="fill:#E28883;" d="M271.172,492.383c-17.358-11.619-39.952-18.647-64.656-18.647c-20.625,0-39.778,4.898-55.643,13.279
	c-2.321,5.939-4.176,12.122-5.485,18.517c-0.325,1.586,0.081,3.235,1.104,4.488c1.024,1.255,2.555,1.982,4.174,1.982h241.008
	c1.619,0,3.151-0.726,4.174-1.982c1.022-1.253,1.429-2.901,1.106-4.488c-1.308-6.395-3.162-12.577-5.485-18.517
	c-15.865-8.38-35.018-13.279-55.643-13.279C311.125,473.736,288.532,480.763,271.172,492.383z"/>
<path style="fill:#5A482E;" d="M271.515,455.504c-1.628,0-3.254-0.502-4.637-1.507l-40.613-29.527
	c-3.522-2.561-4.302-7.492-1.741-11.014c2.562-3.521,7.492-4.301,11.014-1.742l35.977,26.156l35.817-26.039
	c3.521-2.559,8.454-1.781,11.014,1.741c2.56,3.523,1.782,8.454-1.741,11.015l-40.454,29.409
	C274.77,455.002,273.142,455.504,271.515,455.504z"/>
<path style="fill:#E28883;" d="M271.515,428.932c-11.988,0-21.74,9.756-21.74,21.749s9.753,21.75,21.74,21.75
	s21.738-9.757,21.738-21.75C293.252,438.688,283.501,428.932,271.515,428.932z"/>
<g>
	<path style="fill:#E8CAAF;" d="M161.646,204.374c-3.863-1.483-8.056-2.304-12.446-2.304c-19.086,0-34.557,15.368-34.557,34.324
		v28.269c0,18.958,15.471,34.325,34.557,34.325c4.39,0,8.583-0.821,12.446-2.304V204.374z"/>
	<path style="fill:#E8CAAF;" d="M393.144,202.07c-4.381,0-8.565,0.817-12.422,2.294v92.328c3.856,1.476,8.039,2.295,12.422,2.295
		c19.085,0,34.559-15.368,34.559-34.325v-28.269C427.703,217.438,412.229,202.07,393.144,202.07z"/>
</g>
<g>
	<path style="fill:#5A482E;" d="M407.901,360.469c-4.04,0-7.314-3.275-7.314-7.314v-64.929c0-4.04,3.275-7.314,7.314-7.314
		s7.314,3.275,7.314,7.314v64.929C415.215,357.195,411.941,360.469,407.901,360.469z"/>
	<path style="fill:#5A482E;" d="M134.006,360.468c-4.04,0-7.314-3.274-7.314-7.313v-64.929c0-4.04,3.275-7.313,7.314-7.313
		c4.04,0,7.314,3.274,7.314,7.313v64.929C141.32,357.195,138.046,360.468,134.006,360.468z"/>
</g>
<path style="fill:#DE9900;" d="M218.573,87.305h105.049c10.501-9.131,17.141-22.534,17.141-37.487
	C340.762,22.305,318.305,0,290.605,0h-39.013c-27.703,0-50.159,22.305-50.159,49.819C201.432,64.77,208.072,78.173,218.573,87.305z"
	/>
<g>
	<path style="fill:#A87B2C;" d="M251.592,83.59c-18.818,0-34.127-15.15-34.127-33.771c0-18.62,15.309-33.768,34.127-33.768h39.013
		c18.817,0,34.123,15.148,34.123,33.768c0,4.355-3.53,7.885-7.885,7.885s-7.885-3.53-7.885-7.885
		c0-9.924-8.235-17.998-18.354-17.998h-39.013c-10.122,0-18.357,8.074-18.357,17.998c0,9.927,8.235,18.002,18.357,18.002
		c4.354,0,7.885,3.53,7.885,7.885C259.476,80.059,255.946,83.59,251.592,83.59z"/>
	<path style="fill:#A87B2C;" d="M290.605,55.753h-39.013c-4.354,0-7.885-3.531-7.885-7.886s3.531-7.885,7.885-7.885h39.013
		c4.355,0,7.885,3.53,7.885,7.885C298.49,52.223,294.96,55.753,290.605,55.753z"/>
</g>
<path style="fill:#E8CAAF;" d="M391.621,282.833c0,62.447-64.499,113.068-113.841,113.068h-13.216
	c-52.745,0-113.84-50.621-113.84-113.068v-76.726c0-62.444,50.969-113.068,113.84-113.068h13.216
	c62.87,0,113.841,50.624,113.841,113.068V282.833z"/>
<path style="fill:#EFBA50;" d="M314.036,74.148v48.435c0,23.697-7.072,45.767-19.248,64.284
	c21.248,18.506,49.183,29.747,79.793,29.747c5.757,0,11.421-0.409,16.961-1.177v-30.541
	C391.542,134.332,359.352,91.168,314.036,74.148z"/>
<path style="fill:#DE9900;" d="M365.422,181.309c-20.882-2.179-40.194-11.829-54.375-27.173c-0.349-0.377-0.676-0.77-1.018-1.154
	c-1.537,5.715-3.497,11.257-5.844,16.599c16.229,15.39,37.141,25.067,59.6,27.412c0.278,0.028,0.554,0.043,0.828,0.043
	c3.986,0,7.41-3.015,7.834-7.068C372.897,185.639,369.752,181.761,365.422,181.309z"/>
<path style="fill:#FFFFFF;" d="M257.483,350.407c-13.119,0-23.792-10.666-23.792-23.779v-6.795c0-2.346,1.903-4.245,4.249-4.245
	h64.576c2.346,0,4.249,1.899,4.249,4.245v6.795c0,13.112-10.673,23.779-23.791,23.779H257.483z"/>
<g>
	<path style="fill:#FDF276;" d="M76.513,353.753c2.808-10.142,4.6-11.933,14.769-14.733c1.282-0.354,2.165-1.515,2.165-2.839
		c0-1.325-0.884-2.486-2.165-2.839c-10.169-2.8-11.962-4.589-14.769-14.732c-0.353-1.28-1.518-2.162-2.848-2.162
		c-1.329,0-2.493,0.883-2.847,2.162c-2.808,10.142-4.602,11.932-14.77,14.732c-1.28,0.353-2.17,1.513-2.17,2.839
		c0,1.324,0.89,2.485,2.17,2.839c10.167,2.8,11.962,4.591,14.77,14.733c0.354,1.278,1.517,2.161,2.847,2.161
		C74.993,355.914,76.159,355.03,76.513,353.753z"/>
	<path style="fill:#FDF276;" d="M115.582,442.321c-11.586-3.189-13.629-5.227-16.826-16.782c-0.403-1.456-1.729-2.462-3.242-2.462
		c-1.517,0-2.842,1.007-3.245,2.462c-3.197,11.556-5.241,13.593-16.824,16.782c-1.459,0.401-2.471,1.725-2.471,3.235
		c0,1.509,1.013,2.831,2.471,3.235c11.582,3.189,13.627,5.228,16.824,16.783c0.403,1.454,1.728,2.463,3.245,2.463
		c1.513,0,2.839-1.009,3.242-2.463c3.198-11.556,5.24-13.594,16.826-16.783c1.457-0.404,2.466-1.725,2.466-3.235
		C118.048,444.046,117.039,442.721,115.582,442.321z"/>
	<path style="fill:#FDF276;" d="M455.572,431.979c-11.992-3.301-14.106-5.41-17.414-17.37c-0.418-1.506-1.792-2.549-3.356-2.549
		c-1.572,0-2.94,1.042-3.36,2.549c-3.309,11.96-5.424,14.07-17.411,17.37c-1.51,0.416-2.559,1.786-2.559,3.348
		s1.049,2.93,2.559,3.348c11.987,3.3,14.102,5.411,17.411,17.368c0.419,1.506,1.789,2.55,3.36,2.55c1.564,0,2.938-1.044,3.356-2.55
		c3.308-11.957,5.422-14.068,17.414-17.368c1.508-0.418,2.552-1.786,2.552-3.348C458.125,433.764,457.081,432.394,455.572,431.979z"
		/>
</g>
<g>
	<path style="fill:#5A482E;" d="M219.293,293.76c-4.355,0-7.885-3.531-7.885-7.886v-14.548c0-4.355,3.53-7.885,7.885-7.885
		s7.885,3.53,7.885,7.885v14.548C227.178,290.23,223.648,293.76,219.293,293.76z"/>
	<path style="fill:#5A482E;" d="M321.603,293.76c-4.356,0-7.886-3.531-7.886-7.886v-14.548c0-4.355,3.53-7.885,7.886-7.885
		c4.355,0,7.885,3.53,7.885,7.885v14.548C329.488,290.23,325.958,293.76,321.603,293.76z"/>
</g>
<path style="fill:#F9D984;" d="M271.097,66.385c-66.521,0-120.446,53.062-120.446,118.512v43.5
	c16.313,8.117,34.754,12.698,54.286,12.698c66.522,0,120.447-53.06,120.447-118.512V79.084
	C309.069,70.966,290.628,66.385,271.097,66.385z"/>
<g>
	<path style="fill:#EFBA50;" d="M209.277,222.032c-10.145,0-20.106-1.443-29.609-4.291c-4.171-1.25-6.54-5.645-5.29-9.817
		c1.25-4.17,5.647-6.538,9.817-5.29c8.034,2.407,16.473,3.629,25.083,3.629c47.214,0,85.623-37.54,85.623-83.68v-25.29
		c0-4.355,3.531-7.886,7.886-7.886s7.885,3.531,7.885,7.886v25.29C310.67,177.421,265.186,222.032,209.277,222.032z"/>
	<path style="fill:#EFBA50;" d="M209.277,195.088l-0.465-0.002c-4.355-0.033-7.859-3.59-7.825-7.945
		c0.033-4.333,3.557-7.824,7.883-7.824c0.022,0,0.042,0,0.062,0l0.346,0.001c32.286,0,58.567-25.341,58.684-56.53
		c-0.265-0.789-0.409-1.632-0.409-2.508c0-4.355,3.53-7.886,7.886-7.886l0.466,0.001c4.332,0.033,7.825,3.554,7.825,7.886v2.303
		C283.729,162.561,250.33,195.088,209.277,195.088z"/>
</g>
<g>
	<path style="fill:#E28883;" d="M412.15,354.781c-2.335,2.319-6.16,2.319-8.493,0l-7.146-7.096c-2.335-2.32-2.335-6.116,0-8.434
		l7.146-7.096c2.333-2.319,6.158-2.319,8.493,0l7.142,7.096c2.335,2.319,2.335,6.116,0,8.434L412.15,354.781z"/>
	<path style="fill:#E28883;" d="M138.253,354.781c-2.335,2.319-6.158,2.319-8.493,0l-7.143-7.096c-2.335-2.32-2.335-6.116,0-8.434
		l7.143-7.096c2.335-2.319,6.158-2.319,8.493,0l7.144,7.096c2.335,2.319,2.335,6.116,0,8.434L138.253,354.781z"/>
</g>
<g>
	<path style="fill:#16786C;" d="M411.75,398.082c-2.116,2.102-5.581,2.102-7.696,0l-21.104-20.961c-2.116-2.102-2.116-5.542,0-7.642
		l21.104-20.964c2.115-2.101,5.58-2.101,7.696,0l21.104,20.964c2.116,2.101,2.116,5.541,0,7.642L411.75,398.082z"/>
	<path style="fill:#16786C;" d="M137.854,398.082c-2.116,2.102-5.579,2.102-7.695,0l-21.105-20.961
		c-2.116-2.102-2.116-5.542,0-7.642l21.105-20.964c2.116-2.101,5.579-2.101,7.695,0l21.107,20.964c2.117,2.101,2.116,5.54,0,7.642
		L137.854,398.082z"/>
</g>
<path style="opacity:0.1;enable-background:new    ;" d="M171.968,282.833v-54.398c-0.025-0.013-0.049-0.024-0.074-0.037v-43.5
	c0-61.938,48.297-112.775,109.857-118.05c-3.511-0.303-7.065-0.461-10.655-0.461c-66.521,0-120.446,53.062-120.446,118.512v43.5
	c0.024,0.013,0.049,0.024,0.074,0.037v54.398c0,62.447,61.094,113.068,113.84,113.068h13.216c1.284,0,2.583-0.042,3.888-0.11
	C229.919,393.247,171.968,343.652,171.968,282.833z"/>
<path style="opacity:0.1;enable-background:new    ;" d="M260.884,450.68c0-10.068,6.886-18.535,16.184-21.002
	c-1.775-0.47-3.631-0.746-5.554-0.746c-11.988,0-21.74,9.756-21.74,21.749s9.753,21.75,21.74,21.75c1.924,0,3.778-0.276,5.554-0.747
	C267.77,469.217,260.884,460.749,260.884,450.68z"/>
<path style="opacity:0.1;enable-background:new    ;" d="M393.75,377.121c-2.116-2.102-2.116-5.542,0-7.642l19.552-19.422
	l-1.552-1.542c-2.116-2.101-5.581-2.101-7.696,0l-21.104,20.964c-2.116,2.101-2.116,5.541,0,7.642l21.104,20.961
	c2.115,2.102,5.58,2.102,7.696,0l1.552-1.542L393.75,377.121z"/>
<path style="opacity:0.1;enable-background:new    ;" d="M119.349,377.121c-2.116-2.102-2.116-5.542,0-7.642l19.805-19.672
	l-1.3-1.29c-2.116-2.101-5.579-2.101-7.695,0l-21.105,20.964c-2.116,2.101-2.116,5.541,0,7.642l21.105,20.961
	c2.116,2.102,5.579,2.102,7.695,0l1.3-1.289L119.349,377.121z"/>
<g>
</g>
<g>
</g>
<g>
</g>
<g>
</g>
<g>
</g>
<g>
</g>
<g>
</g>
<g>
</g>
<g>
</g>
<g>
</g>
<g>
</g>
<g>
</g>
<g>
</g>
<g>
</g>
<g>
</g>
</svg>
